<?xml version="1.0" encoding="utf-8"?>
<!-- Generator: Adobe Illustrator 26.1.0, SVG Export Plug-In . SVG Version: 6.00 Build 0)  -->
<svg version="1.1" xmlns="http://www.w3.org/2000/svg" xmlns:xlink="http://www.w3.org/1999/xlink" x="0px" y="0px"
	 viewBox="0 0 16 16" style="enable-background:new 0 0 16 16;" xml:space="preserve">
<style type="text/css">
	.st0{fill:#1A2545;}
	.st1{fill:#3D6BC1;}
	.st2{fill:#BC984A;}
	.st3{fill:#DBC59C;}
	.st4{fill:#FFF7E4;}
</style>
<g id="Capa_1">
	<circle cx="8" cy="8" r="7.6" fill="#FFF7E4"/>
	<path class="st0" d="M8,0.4C3.8,0.4,0.4,3.8,0.4,8s3.4,7.6,7.6,7.6s7.6-3.4,7.6-7.6S12.2,0.4,8,0.4z M4.44,10.12l0.02-6.69
		c0.09,0,0.18,0,0.28,0v1.92h1.92v1.42H4.74c0,0.41,0,0.79,0,1.17c0,0.62,0,1.24,0,1.85c0,0,0,0,0,0.01v0.15c0,0.06,0,0.09,0,0.19
		v0.38C4.42,10.47,4.44,10.13,4.44,10.12z M13.81,10.87c-0.68,1.21-1.78,1.67-3.11,1.69c-1.06,0.01-2.02-0.28-2.75-1.06
		c-0.41,0.25-0.78,0.53-1.2,0.72c-0.8,0.38-1.66,0.43-2.52,0.23c-0.95-0.23-1.48-0.97-1.49-2.06c-0.01-1.1,0-2.2,0-3.31V6.77H1.72
		V5.65c0.11-0.03,0.23-0.07,0.35-0.1C2.63,5.4,2.96,5.02,3.09,4.47C3.16,4.19,3.2,3.9,3.27,3.61c0.02-0.06,0.09-0.16,0.14-0.17
		c0.23-0.01,0.47-0.01,0.7-0.01L4.1,10.22c0.09,0.94,1.47,0.78,1.54,0.78c0.48-0.01,0.89-0.2,1.21-0.53
		c0.43-0.43,0.82-0.89,1.22-1.35C8.4,8.75,8.7,8.36,9.02,7.98C9.09,7.91,9.17,7.82,9.3,7.71C9.1,8.36,9.09,8.99,9.19,9.59
		c0.04,0.22,0.1,0.44,0.18,0.65c0.22,0.54,0.62,0.85,1.21,0.88c0.61,0.03,1.08-0.23,1.32-0.79c0.41-0.96,0.41-1.95-0.02-2.9
		c-0.31-0.68-1.08-0.93-1.9-0.67C9.38,6.94,8.92,7.32,8.54,7.79C8.18,8.22,7.85,8.67,7.51,9.1C7.38,9.26,7.25,9.42,7.11,9.6
		c-0.36-2.1,0.67-4.36,3.54-4.37c1.19,0,2.24,0.36,2.97,1.37c0.51,0.72,0.68,1.55,0.66,2.42C14.26,9.67,14.13,10.29,13.81,10.87z"/>
</g>
<g id="Capa_2">
</g>
<g id="Capa_3">
</g>
</svg>
